<svg xmlns="http://www.w3.org/2000/svg" viewBox="0 0 250 116" width="250" height="116" shape-rendering="crispEdges">
  <rect x="8" y="14" width="66" height="12" fill="#e05a4a"/>
  <rect x="8" y="26" width="66" height="2" fill="#3a2a1c"/>
  <rect x="10" y="26" width="4" height="44" fill="#8d6a3d"/>
  <rect x="68" y="26" width="4" height="44" fill="#8d6a3d"/>
  <rect x="8" y="60" width="66" height="10" fill="#a97b4a" stroke="#3a2a1c" stroke-width="2"/>
  <rect x="17" y="44" width="20" height="16" fill="#a97b4a" stroke="#3a2a1c" stroke-width="2"/>
  <rect x="48" y="46" width="8" height="14" fill="#cfe6f5" stroke="#3a2a1c" stroke-width="2"/>
  <rect x="88" y="14" width="66" height="12" fill="#5aa0e0"/>
  <rect x="88" y="26" width="66" height="2" fill="#3a2a1c"/>
  <rect x="90" y="26" width="4" height="44" fill="#8d6a3d"/>
  <rect x="148" y="26" width="4" height="44" fill="#8d6a3d"/>
  <rect x="88" y="60" width="66" height="10" fill="#a97b4a" stroke="#3a2a1c" stroke-width="2"/>
  <rect x="97" y="44" width="20" height="16" fill="#a97b4a" stroke="#3a2a1c" stroke-width="2"/>
  <rect x="128" y="46" width="8" height="14" fill="#cfe6f5" stroke="#3a2a1c" stroke-width="2"/>
  <rect x="168" y="14" width="66" height="12" fill="#8fae5c"/>
  <rect x="168" y="26" width="66" height="2" fill="#3a2a1c"/>
  <rect x="170" y="26" width="4" height="44" fill="#8d6a3d"/>
  <rect x="228" y="26" width="4" height="44" fill="#8d6a3d"/>
  <rect x="168" y="60" width="66" height="10" fill="#a97b4a" stroke="#3a2a1c" stroke-width="2"/>
  <rect x="177" y="44" width="20" height="16" fill="#a97b4a" stroke="#3a2a1c" stroke-width="2"/>
  <rect x="208" y="46" width="8" height="14" fill="#cfe6f5" stroke="#3a2a1c" stroke-width="2"/>
  <rect x="0" y="88" width="250" height="28" fill="#b98f57"/>
</svg>
